. 
 
http://www.torrenting.com          :     Once & For all ;)


               www . Torrenting . Com 

(((((((((((((= Enjoy No RAR releases =))))))))))))))))))))


...................................NFO:....................................

.ooooo oooo   oooo oooooooo8 oooooooooo  o88   oooooooooo       o      ooooo       
 888   8888o  88 888         888    888 oooo   888    888     888      888        
 888   88 888o88  888oooooo  888oooo88   888   888oooo88     8  88     888        
 888   88   8888         888 888         888   888  88o     8oooo88    888      o 
o888o o88o    88 o88oooo888 o888o       o888o o888o  88o8 o88o  o888o o888ooooo88 

 
TITLE: 

The Iron Lady 2011 CAM READNFO XViD - INSPiRAL

IMDB: 
 
http://www.imdb.com/title/tt1007029/


SOURCES:

VIDEO - French Video THANKS
AUDIO - 10 Downing ST THANKS
SUBS  - None Add

STATS:

Video
ID                               : 0
Format                           : MPEG-4 Visual
Format profile                   : Advanced Simple@L5
Format settings, BVOP            : 2
Format settings, QPel            : No
Format settings, GMC             : No warppoints
Format settings, Matrix          : Default (MPEG)
Muxing mode                      : Packed bitstream
Codec ID                         : XVID
Codec ID/Hint                    : XviD
Duration                         : 1h 40mn
Bit rate                         : 1 828 Kbps
Width                            : 720 pixels
Height                           : 304 pixels
Display aspect ratio             : 2.35:1
Frame rate                       : 25.000 fps
Color space                      : YUV
Chroma subsampling               : 4:2:0
Bit depth                        : 8 bits
Scan type                        : Progressive
Compression mode                 : Lossy
Bits/(Pixel*Frame)               : 0.334
Stream size                      : 1.28 GiB (93%)
Writing library                  : XviD 64

Audio
ID                               : 1
Format                           : MPEG Audio
Format version                   : Version 1
Format profile                   : Layer 3
Codec ID                         : 55
Codec ID/Hint                    : MP3
Duration                         : 1h 40mn
Bit rate mode                    : Constant
Bit rate                         : 128 Kbps
Channel(s)                       : 2 channels
Sampling rate                    : 44.1 KHz
Compression mode                 : Lossy
Stream size                      : 91.6 MiB (7%)
Alignment                        : Split accross interleaves
Interleave, duration             : 40 ms (1.00 video frame)
Interleave, preload duration     : 500 ms



NOTES:

Ok had this video a while and no audio til now ....thanks to those at Nos 10 :)
Readnfo ....well the video on a whole was very dark and needed some lov'in ,also missing 4-5 secs but nothing more and you 
can't tell unless u were syncing it.
Workdone ....filtered the video and clean it up some,however still pretty dark and trust much,rise the brightness any higher
and it will look wasted out and shite.
Audio i needed to cut unwanted shit and then sync ...took 12 cuts in the end due to missing video etc...but got there in the end.
Also remastered the audio changing all EQ bands aswell as using a standard hiss removal filter.

Oh got to say the video is watermarked with a site URL ...no i didn't put it there,but didn't fancy having a big ass blur there either.
Last about 40 secs a time and appears 3-4 times throughout.


SCREENS:

[IMG]http://i.imgur.com/EPabh.png[/IMG]
[IMG]http://i.imgur.com/Rlmbt.png[/IMG]
[IMG]http://i.imgur.com/yTtlF.png[/IMG]
[IMG]http://i.imgur.com/k1531.png[/IMG]
[IMG]http://i.imgur.com/1ETsl.png[/IMG]
[IMG]http://i.imgur.com/fqU34.png[/IMG]


GREETZ: 

Past,Present and Future